<svg width="32" height="32" viewBox="0 0 32 32" fill="none" xmlns="http://www.w3.org/2000/svg">
<path d="M28.7071 17.7072L16.7071 29.7072C16.5195 29.8946 16.2652 29.9999 16 29.9999C15.7348 29.9999 15.4804 29.8946 15.2928 29.7072L3.29283 17.7072C3.15299 17.5673 3.05777 17.3891 3.0192 17.1951C2.98063 17.0011 3.00044 16.8001 3.07613 16.6174C3.15182 16.4346 3.27999 16.2785 3.44443 16.1686C3.60887 16.0587 3.8022 16 3.99998 16H8.99998V6C9.00059 5.46975 9.21149 4.9614 9.58644 4.58646C9.96138 4.21151 10.4697 4.00061 11 4H21C21.5302 4.00061 22.0386 4.21151 22.4135 4.58646C22.7885 4.9614 22.9994 5.46975 23 6V16H28C28.1978 16 28.3911 16.0587 28.5555 16.1686C28.72 16.2785 28.8481 16.4346 28.9238 16.6174C28.9995 16.8001 29.0193 17.0011 28.9808 17.1951C28.9422 17.3891 28.847 17.5673 28.7071 17.7072Z" fill="black"/>
</svg>
