<svg width="25" height="25" viewBox="0 0 25 25" fill="none" xmlns="http://www.w3.org/2000/svg">
<circle cx="12.5" cy="12.5" r="12.5" fill="white"/>
<circle cx="12.5" cy="12.5" r="10.5" fill="#006900"/>
<path d="M10.625 17.6563H7.8125C7.68818 17.6563 7.56895 17.6069 7.48104 17.519C7.39314 17.4311 7.34375 17.3119 7.34375 17.1876V14.5692C7.34375 14.5077 7.35587 14.4467 7.37943 14.3898C7.40299 14.333 7.43752 14.2813 7.48104 14.2378L14.5123 7.20651C14.6002 7.1186 14.7194 7.06921 14.8438 7.06921C14.9681 7.06921 15.0873 7.1186 15.1752 7.20651L17.7935 9.82485C17.8815 9.91275 17.9308 10.032 17.9308 10.1563C17.9308 10.2806 17.8815 10.3998 17.7935 10.4878L10.625 17.6563Z" stroke="white" stroke-width="1.5" stroke-linecap="round" stroke-linejoin="round"/>
<path d="M12.9688 8.75L16.25 12.0312" stroke="white" stroke-width="1.5" stroke-linecap="round" stroke-linejoin="round"/>
</svg>
