<svg width="32" height="32" viewBox="0 0 32 32" fill="none" xmlns="http://www.w3.org/2000/svg">
<path d="M11.0001 16.859L22.2397 26.7499C22.3698 26.8644 22.5273 26.9431 22.6969 26.9783C22.8665 27.0136 23.0424 27.0041 23.2073 26.951C23.3721 26.8978 23.5204 26.8027 23.6374 26.675C23.7545 26.5474 23.8364 26.3915 23.8751 26.2226L28.5768 5.70604C28.6175 5.52865 28.6089 5.34354 28.5521 5.17064C28.4954 4.99774 28.3925 4.84361 28.2546 4.72487C28.1167 4.60613 27.949 4.52727 27.7695 4.49679C27.5901 4.46631 27.4058 4.48537 27.2364 4.55191L4.16682 13.615C3.96576 13.694 3.79569 13.8359 3.68204 14.0196C3.5684 14.2033 3.5173 14.4189 3.53638 14.6341C3.55547 14.8492 3.64372 15.0525 3.78792 15.2133C3.93213 15.3741 4.12453 15.4839 4.33635 15.5263L11.0001 16.859Z" stroke="black" stroke-width="2" stroke-linecap="round" stroke-linejoin="round"/>
<path d="M11 16.859L28.014 4.57104" stroke="black" stroke-width="2" stroke-linecap="round" stroke-linejoin="round"/>
<path d="M16.6134 21.7989L12.7071 25.7052C12.5673 25.845 12.3891 25.9403 12.1951 25.9789C12.0011 26.0174 11.8 25.9976 11.6173 25.922C11.4346 25.8463 11.2784 25.7181 11.1685 25.5536C11.0587 25.3892 11 25.1959 11 24.9981V16.8591" stroke="black" stroke-width="2" stroke-linecap="round" stroke-linejoin="round"/>
</svg>
