<svg width="32" height="32" viewBox="0 0 32 32" fill="none" xmlns="http://www.w3.org/2000/svg">
<path d="M16 10V16" stroke="black" stroke-width="2" stroke-linecap="round" stroke-linejoin="round"/>
<path d="M21.1962 19L16 16" stroke="black" stroke-width="2" stroke-linecap="round" stroke-linejoin="round"/>
<path d="M8.979 12.4646H3.979V7.4646" stroke="black" stroke-width="2" stroke-linecap="round" stroke-linejoin="round"/>
<path d="M8.22189 23.7782C9.76027 25.3166 11.7203 26.3642 13.8541 26.7886C15.9879 27.2131 18.1996 26.9952 20.2096 26.1627C22.2196 25.3301 23.9375 23.9202 25.1462 22.1113C26.3549 20.3023 27.0001 18.1756 27.0001 16C27.0001 13.8244 26.3549 11.6977 25.1462 9.88873C23.9375 8.07979 22.2196 6.66989 20.2096 5.83733C18.1996 5.00477 15.9879 4.78693 13.8541 5.21137C11.7203 5.6358 9.76027 6.68345 8.22189 8.22183L3.97925 12.4645" stroke="black" stroke-width="2" stroke-linecap="round" stroke-linejoin="round"/>
</svg>
