<svg width="32" height="32" viewBox="0 0 32 32" fill="none" xmlns="http://www.w3.org/2000/svg">
<path d="M9 13H13V19H9V13ZM29 7V27C29 27.1705 28.9565 27.3381 28.8734 27.487C28.7904 27.6359 28.6708 27.7611 28.5257 27.8507C28.3807 27.9403 28.2152 27.9914 28.0449 27.999C27.8746 28.0067 27.7052 27.9707 27.5527 27.8944L24 26.118L20.4473 27.8944C20.3084 27.9638 20.1553 28 20 28C19.8447 28 19.6916 27.9638 19.5527 27.8944L16 26.118L12.4473 27.8944C12.3084 27.9639 12.1553 28.0001 12 28.0001C11.8447 28.0001 11.6916 27.9639 11.5527 27.8944L8 26.118L4.44727 27.8944C4.29481 27.9707 4.12538 28.0067 3.95508 27.999C3.78479 27.9914 3.61927 27.9403 3.47426 27.8507C3.32925 27.7611 3.20956 27.6359 3.12655 27.487C3.04354 27.3381 2.99998 27.1705 3 27V7C3.00061 6.46975 3.21151 5.9614 3.58646 5.58646C3.9614 5.21151 4.46975 5.00061 5 5H27C27.5302 5.00061 28.0386 5.21151 28.4135 5.58646C28.7885 5.9614 28.9994 6.46975 29 7V7ZM15 12C15 11.7348 14.8946 11.4804 14.7071 11.2929C14.5196 11.1054 14.2652 11 14 11H8C7.73479 11 7.48044 11.1054 7.29291 11.2929C7.10537 11.4804 7.00001 11.7348 7 12V20C7.00001 20.2652 7.10537 20.5196 7.29291 20.7071C7.48044 20.8946 7.73479 21 8 21H14C14.2652 21 14.5196 20.8946 14.7071 20.7071C14.8946 20.5196 15 20.2652 15 20V12ZM25 18C25 17.7348 24.8946 17.4804 24.7071 17.2929C24.5196 17.1054 24.2652 17 24 17H18C17.7348 17 17.4804 17.1054 17.2929 17.2929C17.1054 17.4804 17 17.7348 17 18C17 18.2652 17.1054 18.5196 17.2929 18.7071C17.4804 18.8946 17.7348 19 18 19H24C24.2652 19 24.5196 18.8946 24.7071 18.7071C24.8946 18.5196 25 18.2652 25 18V18ZM25 14C25 13.7348 24.8946 13.4804 24.7071 13.2929C24.5196 13.1054 24.2652 13 24 13H18C17.7348 13 17.4804 13.1054 17.2929 13.2929C17.1054 13.4804 17 13.7348 17 14C17 14.2652 17.1054 14.5196 17.2929 14.7071C17.4804 14.8946 17.7348 15 18 15H24C24.2652 15 24.5196 14.8946 24.7071 14.7071C24.8946 14.5196 25 14.2652 25 14V14Z" fill="black"/>
</svg>
