<svg width="32" height="32" viewBox="0 0 32 32" fill="none" xmlns="http://www.w3.org/2000/svg">
<path d="M27.631 21.9913C26.8873 20.7146 26.0005 18.2919 26.0005 14V13.113C26.0005 7.5774 21.5485 3.04078 16.0762 3.00025C16.0506 3.00012 16.0253 3 15.9998 3C13.3478 3.00017 10.8044 4.05382 8.92918 5.92917C7.05397 7.80452 6.00051 10.348 6.00053 13V14C6.00053 18.2914 5.11345 20.7142 4.36931 21.9909C4.19169 22.2947 4.0974 22.64 4.09596 22.992C4.09453 23.3439 4.186 23.69 4.36114 23.9953C4.53627 24.3006 4.78887 24.5542 5.09342 24.7306C5.39797 24.9071 5.74368 25 6.09563 25H25.9045C26.2564 25 26.602 24.9071 26.9066 24.7307C27.2111 24.5544 27.4637 24.3008 27.6388 23.9956C27.814 23.6903 27.9055 23.3443 27.9041 22.9924C27.9028 22.6405 27.8086 22.2952 27.631 21.9913H27.631Z" fill="black"/>
<path d="M19.9912 27H11.9912C11.726 27 11.4716 27.1054 11.2841 27.2929C11.0966 27.4804 10.9912 27.7348 10.9912 28C10.9912 28.2652 11.0966 28.5196 11.2841 28.7071C11.4716 28.8946 11.726 29 11.9912 29H19.9912C20.2564 29 20.5108 28.8946 20.6983 28.7071C20.8859 28.5196 20.9912 28.2652 20.9912 28C20.9912 27.7348 20.8859 27.4804 20.6983 27.2929C20.5108 27.1054 20.2564 27 19.9912 27Z" fill="black"/>
</svg>
