<svg width="32" height="32" viewBox="0 0 32 32" fill="none" xmlns="http://www.w3.org/2000/svg">
<circle cx="16" cy="16" r="16" fill="#006900"/>
<path d="M23.5178 18.4341L19.7708 16.8283C19.5751 16.744 19.3615 16.7101 19.1494 16.7296C18.9373 16.7491 18.7335 16.8214 18.5565 16.9398L16.553 18.2753C15.3286 17.6798 14.3376 16.6931 13.7366 15.4713L13.7368 15.4712L15.0676 13.4377C15.1834 13.2612 15.2537 13.0587 15.2721 12.8484C15.2905 12.638 15.2566 12.4264 15.1732 12.2324L13.5659 8.48218C13.4564 8.22761 13.2675 8.01533 13.0274 7.87713C12.7872 7.73893 12.5087 7.68223 12.2337 7.71554C11.1528 7.85451 10.1594 8.38225 9.4392 9.20015C8.71899 10.0181 8.32117 11.0702 8.32007 12.16C8.32007 18.5122 13.4879 23.68 19.8401 23.68C20.9299 23.6789 21.982 23.2811 22.7999 22.5608C23.6178 21.8406 24.1456 20.8472 24.2845 19.7663C24.3177 19.4912 24.261 19.2128 24.1228 18.9727C23.9846 18.7325 23.7723 18.5436 23.5178 18.4341V18.4341Z" fill="white"/>
</svg>
