<svg width="32" height="32" viewBox="0 0 32 32" fill="none" xmlns="http://www.w3.org/2000/svg">
<path d="M27 11.4142V26C27 26.2652 26.8946 26.5196 26.7071 26.7071C26.5196 26.8946 26.2652 27 26 27H6C5.73478 27 5.48043 26.8946 5.29289 26.7071C5.10536 26.5196 5 26.2652 5 26V6C5 5.73478 5.10536 5.48043 5.29289 5.29289C5.48043 5.10536 5.73478 5 6 5H20.5858C20.7171 5 20.8471 5.02587 20.9685 5.07612C21.0898 5.12638 21.2 5.20004 21.2929 5.29289L26.7071 10.7071C26.8 10.8 26.8736 10.9102 26.9239 11.0315C26.9741 11.1529 27 11.2829 27 11.4142Z" stroke="black" stroke-width="2" stroke-linecap="round" stroke-linejoin="round"/>
<path d="M10 27.001V19.001C10 18.7358 10.1054 18.4814 10.2929 18.2939C10.4804 18.1063 10.7348 18.001 11 18.001H21C21.2652 18.001 21.5196 18.1063 21.7071 18.2939C21.8946 18.4814 22 18.7358 22 19.001V27.001" stroke="black" stroke-width="2" stroke-linecap="round" stroke-linejoin="round"/>
<path d="M19 9.00122H12" stroke="black" stroke-width="2" stroke-linecap="round" stroke-linejoin="round"/>
</svg>
