<svg width="30" height="30" viewBox="0 0 30 30" fill="none" xmlns="http://www.w3.org/2000/svg">
<circle cx="15" cy="15" r="14" stroke="black" stroke-width="2"/>
<path d="M9.654 18.152L11.908 16.024C13.28 14.75 13.546 13.882 13.546 12.93C13.546 11.152 12.09 10.032 9.906 10.032C8.142 10.032 6.77 10.746 6.014 11.852L7.666 12.916C8.142 12.258 8.856 11.936 9.696 11.936C10.732 11.936 11.264 12.384 11.264 13.154C11.264 13.63 11.11 14.134 10.242 14.96L6.462 18.53V20H13.868V18.152H9.654ZM23.6411 16.094H22.0451V14.26H19.9031V16.094H17.2711L21.5551 10.2H19.1751L14.5551 16.416V17.942H19.8331V20H22.0451V17.942H23.6411V16.094Z" fill="black"/>
</svg>
