<svg width="32" height="27" viewBox="0 0 32 27" fill="none" xmlns="http://www.w3.org/2000/svg">
<path d="M10.0443 26.2857C6.34713 26.2857 2.90077 25.2104 0 23.355C2.46285 23.5144 6.80922 23.1327 9.51266 20.554C5.4458 20.3674 3.61173 17.2483 3.3725 15.9154C3.71805 16.0487 5.36606 16.2086 6.29639 15.8354C1.61817 14.6624 0.900489 10.5569 1.05997 9.30397C1.93714 9.91713 3.42566 10.1304 4.01044 10.0771C-0.348808 6.95798 1.21946 2.26601 1.9903 1.25297C5.11866 5.58705 9.80709 8.02122 15.6073 8.15662C15.4979 7.67698 15.4402 7.17762 15.4402 6.66474C15.4402 2.9839 18.4153 0 22.0854 0C24.0029 0 25.7308 0.814576 26.9437 2.11753C28.225 1.81726 30.1535 1.11436 31.0963 0.50652C30.6211 2.21269 29.1416 3.63599 28.2467 4.16352C28.2542 4.18146 28.2395 4.14549 28.2467 4.16352C29.0328 4.04461 31.1598 3.63585 32 3.06578C31.5845 4.02429 30.016 5.61798 28.7288 6.5102C28.9683 17.0721 20.8874 26.2857 10.0443 26.2857Z" fill="#47ACDF"/>
</svg>
