<svg width="32" height="32" viewBox="0 0 32 32" fill="none" xmlns="http://www.w3.org/2000/svg">
<path d="M28.9238 15.3826C28.8481 15.5653 28.72 15.7215 28.5555 15.8314C28.3911 15.9413 28.1978 15.9999 28 15.9999H23V25.9999C22.9994 26.5302 22.7885 27.0385 22.4135 27.4135C22.0386 27.7884 21.5302 27.9993 21 27.9999H11C10.4697 27.9993 9.96138 27.7884 9.58644 27.4135C9.21149 27.0385 9.00059 26.5302 8.99998 25.9999V15.9999H3.99998C3.8022 15.9999 3.60887 15.9413 3.44443 15.8314C3.27999 15.7215 3.15182 15.5653 3.07613 15.3826C3.00044 15.1999 2.98063 14.9988 3.0192 14.8048C3.05777 14.6108 3.15299 14.4327 3.29283 14.2928L15.2928 2.29278C15.4804 2.10531 15.7348 2 16 2C16.2652 2 16.5195 2.10531 16.7071 2.29278L28.7071 14.2928C28.847 14.4327 28.9422 14.6109 28.9807 14.8049C29.0193 14.9988 28.9995 15.1999 28.9238 15.3826V15.3826Z" fill="black"/>
</svg>
