<svg width="16" height="16" viewBox="0 0 16 16" fill="none" xmlns="http://www.w3.org/2000/svg">
<path d="M15.7822 1.26721C15.7438 1.00253 15.6208 0.75736 15.4317 0.568246C15.2426 0.379132 14.9974 0.256205 14.7327 0.217792C13.851 0.0862222 11.5592 0.021449 9.32576 2.25476L8.62494 2.9556H3.83947C3.67524 2.95517 3.51256 2.9873 3.36084 3.05014C3.20911 3.11298 3.07135 3.20527 2.95552 3.32169L0.428821 5.84844C0.268852 6.00843 0.155304 6.20884 0.100285 6.42829C0.0452654 6.64774 0.0508377 6.87801 0.116408 7.09455C0.181978 7.31108 0.305087 7.50576 0.472607 7.65783C0.640128 7.80989 0.845778 7.91364 1.06763 7.95801L4.1563 8.57576L7.42425 11.8437L8.04197 14.9324C8.08627 15.1543 8.19 15.36 8.34207 15.5276C8.49414 15.6951 8.68885 15.8183 8.90543 15.8839C9.122 15.9494 9.35232 15.955 9.5718 15.8999C9.79128 15.8448 9.99169 15.7312 10.1516 15.5711L12.6783 13.0444C12.7948 12.9286 12.8871 12.7908 12.9499 12.6391C13.0127 12.4874 13.0449 12.3247 13.0444 12.1605V7.375L13.7452 6.67417C15.9787 4.44074 15.9138 2.14894 15.7822 1.26721ZM3.83947 4.2056H7.37497L4.25903 7.32152L1.31277 6.7323L3.83947 4.2056ZM11.7944 12.1605L9.2677 14.6872L8.67847 11.741L11.7944 8.62504L11.7944 12.1605Z" fill="white"/>
</svg>
