<svg width="32" height="32" viewBox="0 0 32 32" fill="none" xmlns="http://www.w3.org/2000/svg">
<path d="M29.2913 8.72468C29.1727 8.26474 28.9465 7.8396 28.6312 7.48433C28.316 7.12906 27.9208 6.85385 27.4782 6.68141C23.1945 5.03529 16.3724 5.04902 16 5.05097C15.6278 5.04798 8.8056 5.03522 4.52185 6.68141C4.0793 6.85384 3.68409 7.12903 3.36884 7.48428C3.05359 7.83953 2.82734 8.26465 2.70874 8.72456C2.38537 9.96589 2 12.2357 2 16C2 19.7642 2.38537 22.0341 2.70868 23.2753C2.82725 23.7353 3.0535 24.1604 3.36875 24.5157C3.68401 24.871 4.07922 25.1462 4.52179 25.3186C8.62256 26.8945 15.0495 26.9493 15.9177 26.9493C15.9952 26.9494 16.0048 26.9494 16.0823 26.9493C16.9512 26.9492 23.3776 26.8944 27.4782 25.3186C27.9207 25.1462 28.3159 24.871 28.6312 24.5157C28.9464 24.1605 29.1727 23.7354 29.2913 23.2755C29.6146 22.0341 30 19.7643 30 16C30 12.2358 29.6146 9.96595 29.2913 8.72468ZM20.2773 16.416L14.2773 20.416C14.202 20.4662 14.1145 20.4951 14.0241 20.4994C13.9337 20.5038 13.8438 20.4836 13.7641 20.4409C13.6843 20.3982 13.6176 20.3346 13.571 20.257C13.5245 20.1793 13.5 20.0905 13.5 20V12C13.5 11.9095 13.5245 11.8207 13.571 11.7431C13.6176 11.6654 13.6843 11.6018 13.7641 11.5591C13.8438 11.5164 13.9337 11.4962 14.0241 11.5006C14.1145 11.5049 14.202 11.5338 14.2773 11.584L20.2773 15.584C20.3458 15.6296 20.402 15.6915 20.4408 15.7641C20.4797 15.8367 20.5 15.9177 20.5 16C20.5 16.0823 20.4797 16.1634 20.4408 16.2359C20.402 16.3085 20.3458 16.3704 20.2773 16.416Z" fill="black"/>
</svg>
